# File created by Blade
# Date/Time:  Wed Jan 21 17:21:31 2015
# Frame Rate: 120.000 fps
#------------------------------------------------------
:FULLY-SPECIFIED
:DEGREES
921
root 18.707805 14.391980 -23.800798 -154.009001 20.432657 -198.126204
Spine -15.017041 19.337044 -31.819322
Head -26.913324 -9.437408 0.840842
LeftShoulder -4.165482 -2.601035 3.788459
LeftArm -95.131506 48.098506 -144.791388
LeftForeArm -22.355208 0.000000 61.438266
LeftHand -23.028522 -0.000000 -3.296992
LeftHandThumb1 -26.253704 0.000000 33.147579
RightShoulder -2.398662 -8.331315 10.769621
RightArm 30.888340 -40.728419 54.043313
RightForeArm -27.416482 -0.000000 21.907916
RightHand -3.613692 0.000000 5.820034
RightHandThumb1 -24.326973 -0.000000 -32.862282
LeftUpLeg -124.841631 -4.853096 -39.454455
LeftLeg 118.751366 -0.000000 -0.000000
LeftFoot -41.392222 26.373826 -7.486828
LeftToeBase 21.941612 -0.000000 -0.000000
RightUpLeg 13.686686 -9.848717 -20.839667
RightLeg 142.475318 -0.000000 -0.000000
RightFoot 46.795180 -16.544786 -3.317382
RightToeBase 27.944819 -0.000000 -0.000000
922
root 18.722866 14.407352 -23.779459 -154.095092 20.485603 -198.056837
Spine -14.751291 19.498275 -31.762991
Head -26.995742 -9.443479 0.879153
LeftShoulder -4.174810 -2.741782 3.741642
LeftArm -94.846709 48.110777 -144.627251
LeftForeArm -21.911359 -0.000000 61.021477
LeftHand -23.056765 -0.000000 -3.515656
LeftHandThumb1 -26.253704 0.000000 33.147579
RightShoulder -2.311086 -8.341722 10.733050
RightArm 31.059680 -40.416292 53.962453
RightForeArm -27.423944 -0.000000 21.824095
RightHand -3.579184 -0.000000 5.726608
RightHandThumb1 -24.326973 -0.000000 -32.862282
LeftUpLeg -124.819452 -4.693678 -39.371773
LeftLeg 118.694962 -0.000000 -0.000000
LeftFoot -41.370436 26.333932 -7.563253
LeftToeBase 22.040391 -0.000000 -0.000000
RightUpLeg 13.669609 -9.755968 -20.736193
RightLeg 142.406964 -0.000000 -0.000000
RightFoot 46.761760 -16.491983 -3.365120
RightToeBase 27.783666 -0.000000 -0.000000
923
root 18.727513 14.429796 -23.756071 -154.167210 20.527706 -198.106860
Spine -14.493628 19.591819 -31.811065
Head -27.101553 -9.416446 0.897874
LeftShoulder -4.182135 -2.879601 3.688819
LeftArm -94.583000 48.142984 -144.468716
LeftForeArm -21.576699 -0.000000 60.604020
LeftHand -23.019840 -0.000000 -3.597024
LeftHandThumb1 -26.253704 0.000000 33.147579
RightShoulder -2.205362 -8.290793 10.666186
RightArm 31.278934 -40.257330 53.801886
RightForeArm -27.292941 -0.000000 21.686986
RightHand -3.686064 -0.000000 5.641419
RightHandThumb1 -24.326973 -0.000000 -32.862282
LeftUpLeg -124.736278 -4.625643 -39.357562
LeftLeg 118.561702 -0.000000 -0.000000
LeftFoot -41.237898 26.435509 -7.504050
LeftToeBase 21.854854 -0.000000 -0.000000
RightUpLeg 13.614766 -9.696871 -20.759803
RightLeg 142.316237 -0.000000 -0.000000
RightFoot 46.793432 -16.455476 -3.431902
RightToeBase 27.739827 -0.000000 -0.000000
924
root 18.735862 14.450530 -23.734737 -154.240755 20.572773 -198.119397
Spine -14.235166 19.739880 -31.842470
Head -27.182226 -9.410935 0.946993
LeftShoulder -4.145472 -3.057336 3.637538
LeftArm -94.315594 48.115416 -144.310114
LeftForeArm -21.261127 -0.000000 60.118750
LeftHand -22.789349 -0.000000 -3.498179
LeftHandThumb1 -26.253704 0.000000 33.147579
RightShoulder -2.191041 -8.309279 10.643635
RightArm 31.567690 -39.976326 53.619740
RightForeArm -27.252758 -0.000000 21.525508
RightHand -3.781771 -0.000000 5.433593
RightHandThumb1 -24.326973 -0.000000 -32.862282
LeftUpLeg -124.673180 -4.544792 -39.295858
LeftLeg 118.455545 -0.000000 -0.000000
LeftFoot -41.224948 26.475740 -7.567021
LeftToeBase 21.985192 -0.000000 -0.000000
RightUpLeg 13.590577 -9.607802 -20.734156
RightLeg 142.205750 -0.000000 -0.000000
RightFoot 46.728630 -16.374155 -3.462596
RightToeBase 27.716004 -0.000000 -0.000000
925
root 18.741472 14.472691 -23.710735 -154.310474 20.630392 -198.142461
Spine -13.961489 19.878784 -31.874564
Head -27.309341 -9.420264 0.986977
LeftShoulder -4.147868 -3.203660 3.564697
LeftArm -94.038077 48.150838 -144.155317
LeftForeArm -21.016525 -0.000000 59.586747
LeftHand -22.708356 -0.000000 -3.564118
LeftHandThumb1 -26.253704 0.000000 33.147579
RightShoulder -2.124192 -8.277337 10.579591
RightArm 31.750243 -39.654029 53.561944
RightForeArm -27.243340 -0.000000 21.353477
RightHand -3.949188 -0.000000 5.147057
RightHandThumb1 -24.326973 -0.000000 -32.862282
LeftUpLeg -124.608459 -4.468529 -39.260288
LeftLeg 118.341174 -0.000000 -0.000000
LeftFoot -41.213136 26.488765 -7.619867
LeftToeBase 22.113582 -0.000000 -0.000000
RightUpLeg 13.526148 -9.503839 -20.729595
RightLeg 142.101459 -0.000000 -0.000000
RightFoot 46.702883 -16.255652 -3.520611
RightToeBase 27.621748 -0.000000 -0.000000
926
root 18.751129 14.495244 -23.686753 -154.400181 20.695291 -198.159940
Spine -13.666253 20.042153 -31.935546
Head -27.423935 -9.433949 1.061244
LeftShoulder -4.112078 -3.421016 3.527943
LeftArm -93.738972 48.107235 -144.035211
LeftForeArm -20.661632 -0.000000 58.897680
LeftHand -22.578189 0.000000 -3.689561
LeftHandThumb1 -26.253704 0.000000 33.147579
RightShoulder -2.040553 -8.262424 10.561472
RightArm 31.823896 -39.020658 53.629962
RightForeArm -26.905695 -0.000000 21.225996
RightHand -3.871528 -0.000000 5.384481
RightHandThumb1 -24.326973 -0.000000 -32.862282
LeftUpLeg -124.535726 -4.359556 -39.223280
LeftLeg 118.229403 -0.000000 -0.000000
LeftFoot -41.140610 26.524419 -7.618367
LeftToeBase 22.104674 -0.000000 -0.000000
RightUpLeg 13.492927 -9.390841 -20.718552
RightLeg 141.965058 -0.000000 -0.000000
RightFoot 46.653305 -16.217286 -3.561149
RightToeBase 27.774300 -0.000000 -0.000000
927
root 18.760700 14.518759 -23.659725 -154.464640 20.756184 -198.134427
Spine -13.352185 20.202488 -31.920852
Head -27.589645 -9.414579 1.140335
LeftShoulder -4.093318 -3.664276 3.435203
LeftArm -93.455137 48.051231 -143.889996
LeftForeArm -20.266256 -0.000000 58.194133
LeftHand -22.293572 0.000000 -3.811616
LeftHandThumb1 -26.253704 0.000000 33.147579
RightShoulder -1.975264 -8.241507 10.517147
RightArm 32.024143 -38.577528 53.556891
RightForeArm -27.023446 0.000000 21.058344
RightHand -4.072860 0.000000 5.080610
RightHandThumb1 -24.326973 -0.000000 -32.862282
LeftUpLeg -124.489618 -4.256738 -39.133586
LeftLeg 118.114167 -0.000000 -0.000000
LeftFoot -40.991664 26.594689 -7.568319
LeftToeBase 21.864801 -0.000000 -0.000000
RightUpLeg 13.426071 -9.304582 -20.668915
RightLeg 141.818260 -0.000000 -0.000000
RightFoot 46.620539 -16.288871 -3.588677
RightToeBase 27.830378 -0.000000 -0.000000
928
root 18.774675 14.540010 -23.633916 -154.574565 20.796136 -198.096968
Spine -12.954603 20.397883 -31.874336
Head -27.777038 -9.444087 1.201554
LeftShoulder -4.093640 -3.890402 3.329108
LeftArm -93.141381 48.070749 -143.792394
LeftForeArm -19.998089 -0.000000 57.267080
LeftHand -22.094010 -0.000000 -4.154297
LeftHandThumb1 -26.253704 0.000000 33.147579
RightShoulder -1.920003 -8.204483 10.461859
RightArm 32.299919 -38.120686 53.471029
RightForeArm -26.671202 -0.000000 20.752127
RightHand -4.170951 -0.000000 4.748952
RightHandThumb1 -24.326973 -0.000000 -32.862282
LeftUpLeg -124.413433 -4.123328 -39.023276
LeftLeg 118.011675 -0.000000 -0.000000
LeftFoot -40.901833 26.632138 -7.575278
LeftToeBase 21.874890 -0.000000 -0.000000
RightUpLeg 13.416917 -9.197859 -20.581609
RightLeg 141.627421 -0.000000 -0.000000
RightFoot 46.605837 -16.252290 -3.744394
RightToeBase 28.022758 -0.000000 -0.000000
929
root 18.784093 14.563627 -23.605328 -154.681840 20.861375 -198.071250
Spine -12.554652 20.600385 -31.836414
Head -27.956247 -9.391503 1.202591
LeftShoulder -4.041127 -4.187601 3.244621
LeftArm -92.684612 47.989989 -143.623914
LeftForeArm -19.625558 -0.000000 56.160394
LeftHand -21.734167 0.000000 -4.541707
LeftHandThumb1 -26.253704 0.000000 33.147579
RightShoulder -1.779806 -8.149629 10.375554
RightArm 32.397301 -37.569922 53.522488
RightForeArm -26.578398 -0.000000 20.520920
RightHand -4.222544 -0.000000 4.536053
RightHandThumb1 -24.326973 -0.000000 -32.862282
LeftUpLeg -124.344671 -3.998136 -38.910265
LeftLeg 117.898891 -0.000000 -0.000000
LeftFoot -40.796094 26.656424 -7.606325
LeftToeBase 21.870407 -0.000000 -0.000000
RightUpLeg 13.383584 -9.096777 -20.538869
RightLeg 141.411446 -0.000000 -0.000000
RightFoot 46.641747 -16.284861 -3.826727
RightToeBase 27.814471 -0.000000 -0.000000
